ply
format ascii 1.0
element vertex 30
property float x
property float y
property float z
property uchar red
property uchar green
property uchar blue
end_header
0.208764 -0.540556 -0.162828 88 43 167
-0.026458 0.848956 0.085836 125 16 178
-0.317046 -0.910219 -0.16047 128 37 242
0.009244 0.165018 0.162827 36 230 176
0.026873 0.144148 -0.162828 77 108 17
-0.362 -0.894599 -0.085462 246 174 39
-0.034949 -0.103906 -0.162828 223 209 148
-0.323782 -0.147072 -0.068159 48 45 208
0.256551 -0.901259 -0.162426 121 39 128
0.091032 0.860952 0.135422 186 103 71
0.100185 -0.811987 0.150224 145 173 192
0.053964 0.511407 0.095704 184 121 31
0.231176 -0.609996 -0.162828 93 212 8
0.451918 -0.602808 0.016082 131 169 108
-0.236793 -0.387972 0.150224 26 242 234
0.078622 -0.516766 -0.162828 140 88 120
-0.059975 -0.511377 0.150224 95 215 80
0.249633 -0.517752 -0.162828 116 69 250
-0.314108 -0.297415 0.110834 75 188 144
0.095476 0.19188 0.137919 49 194 214
-0.056478 0.326453 0.067367 101 127 226
0.066543 0.777669 0.150368 7 253 146
0.268572 -0.66132 0.150224 12 135 49
-0.362941 -0.410703 -0.150141 214 159 167
0.276995 -0.383332 0.149862 50 214 31
0.392245 -0.745965 -0.161941 28 189 80
0.335047 -0.114215 0.048655 239 72 85
0.271581 0.124305 0.146286 35 186 212
-0.115791 -0.99216 0.144896 180 153 190
-0.01277 -0.426953 -0.162828 64 36 0
