ply
format ascii 1.0
element vertex 39
property float x
property float y
property float z
element edge 110
property int32 vertex1
property int32 vertex2
end_header
0.375234 -0.430993 -0.161169
-0.0795195 0.948677 0.12484
-0.201082 -0.99093 -0.161602
-0.071129 0.201849 0.157061
-0.00706338 0.209124 -0.163325
-0.427435 -0.830876 0.147775
0.30639 0.122226 -0.161484
-0.316307 0.112329 -0.161496
0.205824 -0.990437 -0.161461
0.0803887 0.9553 0.111186
0.213698 -0.989938 0.147711
-0.0805592 0.776031 0.0929442
0.460744 -0.618493 -0.160812
0.456065 -0.591364 0.148099
-0.111725 -0.28392 0.144914
0.078622 -0.516766 -0.162828
-0.172535 -0.737121 0.151428
0.29876 -0.248523 -0.162047
-0.296121 -0.256842 0.14822
0.0703157 0.1979 0.15786
0.00808392 0.244847 -0.000872639
0.0590062 0.708883 0.0980649
0.430179 -0.824759 0.147862
-0.459548 -0.599799 -0.161357
0.295044 -0.257221 0.148363
0.420428 -0.838426 -0.161376
0.344613 -0.0610426 0.148222
0.277875 0.144085 0.14801
-0.219499 -0.987784 0.147795
-0.295797 -0.257211 -0.16202
-0.42341 -0.834855 -0.161459
-0.322079 0.105699 0.148205
-0.460927 -0.601954 0.147854
0.172735 -0.742253 0.151355
0.0209772 -0.0724371 0.148558
-0.0647391 0.720112 0.150357
0.11935 -0.271471 0.144672
0.0663465 0.761762 0.148716
0.0590062 0.708883 0.0980649
17 29
10 28
8 10
5 28
12 13
0 17
0 12
3 19
18 32
3 31
15 23
2 8
23 29
2 30
6 17
17 26
16 28
11 21
0 24
1 9
3 20
15 29
22 33
21 35
14 16
6 26
4 7
19 35
23 30
10 16
8 25
18 31
18 29
8 15
31 34
3 35
7 31
11 35
34 36
29 31
10 33
4 17
4 6
22 25
33 36
2 15
19 34
27 34
7 29
10 25
3 34
15 17
14 32
4 20
21 37
19 27
23 32
24 36
26 34
0 15
13 33
5 32
9 11
4 29
16 33
35 37
20 21
19 21
13 22
2 28
17 24
6 27
26 36
12 25
14 18
28 30
14 36
5 16
7 20
3 7
26 27
14 34
13 24
12 15
19 20
5 30
20 27
12 22
30 32
10 22
18 34
24 26
20 35
0 13
15 30
9 37
1 11
14 33
6 20
16 32
9 21
2 10
15 25
1 37
11 37
29 32
13 36
18 23
7 18
24 33
